<svg width="24" height="20" viewBox="0 0 24 20" fill="none" xmlns="http://www.w3.org/2000/svg">
<path d="M11.569 5.28516C11.8352 5.03906 11.9402 4.65234 11.8015 4.30859C11.7152 4.10156 11.6215 3.89844 11.5165 3.70312L11.4002 3.49219C11.2877 3.29687 11.164 3.10547 11.0327 2.92187C10.819 2.625 10.444 2.52734 10.1065 2.64453L9.04898 3.00781C8.64773 2.66406 8.18649 2.38281 7.69148 2.19141L7.46273 1.05859C7.39148 0.695312 7.12148 0.40625 6.76898 0.363281C6.52148 0.328125 6.27023 0.3125 6.01523 0.3125H5.98898C5.73398 0.3125 5.48274 0.328125 5.23524 0.359375C4.88274 0.402344 4.61274 0.695312 4.54149 1.05469L4.31274 2.19141C3.81399 2.38672 3.35649 2.66406 2.95524 3.00781L1.89399 2.64844C1.55649 2.53125 1.18149 2.62891 0.967735 2.92578C0.836485 3.10937 0.712735 3.30078 0.596485 3.49609L0.483985 3.70312C0.378985 3.89844 0.285235 4.10156 0.198985 4.3125C0.0602353 4.65234 0.165235 5.03906 0.431485 5.28906L1.26399 6.0625C1.22274 6.32422 1.20024 6.59766 1.20024 6.875C1.20024 7.15234 1.22274 7.42578 1.26399 7.69141L0.431485 8.46484C0.165235 8.71094 0.0602353 9.09766 0.198985 9.44141C0.285235 9.64844 0.378985 9.85156 0.483985 10.0508L0.596485 10.2539C0.708985 10.4531 0.832735 10.6406 0.967735 10.8242C1.18149 11.1211 1.55649 11.2187 1.89399 11.1016L2.95149 10.7383C3.35274 11.082 3.81399 11.3633 4.30899 11.5547L4.53773 12.6914C4.60899 13.0547 4.87898 13.3437 5.23148 13.3867C5.48273 13.418 5.73773 13.4336 5.99648 13.4336C6.25523 13.4336 6.51023 13.418 6.76149 13.3867C7.11399 13.3437 7.38399 13.0508 7.45524 12.6914L7.68398 11.5547C8.18273 11.3594 8.64023 11.082 9.04148 10.7383L10.099 11.1016C10.4365 11.2187 10.8115 11.1211 11.0252 10.8242C11.1565 10.6406 11.2802 10.4531 11.3927 10.2539L11.509 10.043C11.614 9.84766 11.7077 9.64453 11.794 9.4375C11.9327 9.09766 11.8277 8.71094 11.5615 8.46094L10.729 7.6875C10.7702 7.42187 10.7927 7.14844 10.7927 6.87109C10.7927 6.59375 10.7702 6.32031 10.729 6.05469L11.5615 5.28125L11.569 5.28516ZM4.20024 6.875C4.20024 6.37772 4.38988 5.9008 4.72744 5.54917C5.06501 5.19754 5.52285 5 6.00023 5C6.47762 5 6.93546 5.19754 7.27303 5.54917C7.61059 5.9008 7.80023 6.37772 7.80023 6.875C7.80023 7.37228 7.61059 7.84919 7.27303 8.20082C6.93546 8.55245 6.47762 8.75 6.00023 8.75C5.52285 8.75 5.06501 8.55245 4.72744 8.20082C4.38988 7.84919 4.20024 7.37228 4.20024 6.875ZM18.9265 19.5508C19.1627 19.8281 19.534 19.9375 19.864 19.793C20.0627 19.7031 20.2577 19.6055 20.4452 19.4961L20.6477 19.375C20.8352 19.2578 21.019 19.1289 21.1952 18.9922C21.4802 18.7695 21.574 18.3789 21.4615 18.0273L21.1127 16.9258C21.4427 16.5078 21.7127 16.0273 21.8965 15.5117L22.9877 15.2734C23.3365 15.1992 23.614 14.918 23.6552 14.5508C23.6852 14.2891 23.7002 14.0234 23.7002 13.7539C23.7002 13.4844 23.6852 13.2187 23.6552 12.957C23.614 12.5898 23.3327 12.3086 22.9877 12.2344L21.8965 11.9922C21.709 11.4727 21.4427 10.9961 21.1127 10.5781L21.4615 9.47656C21.574 9.125 21.4802 8.73437 21.1952 8.51172C21.019 8.375 20.8352 8.24609 20.6477 8.125L20.449 8.00781C20.2615 7.89844 20.0665 7.80078 19.864 7.71094C19.5377 7.56641 19.1665 7.67578 18.9265 7.95312L18.184 8.82031C17.929 8.77734 17.6665 8.75391 17.4002 8.75391C17.134 8.75391 16.8715 8.77734 16.6165 8.82031L15.874 7.95312C15.6377 7.67578 15.2665 7.56641 14.9365 7.71094C14.7377 7.80078 14.5427 7.89844 14.3515 8.00781L14.1565 8.125C13.9652 8.24219 13.7852 8.37109 13.609 8.51172C13.324 8.73437 13.2302 9.125 13.3427 9.47656L13.6915 10.5781C13.3615 10.9961 13.0915 11.4766 12.9077 11.9922L11.8165 12.2266C11.4677 12.3008 11.1902 12.582 11.149 12.9492C11.119 13.2109 11.104 13.4766 11.104 13.7461C11.104 14.0156 11.119 14.2812 11.149 14.543C11.1902 14.9102 11.4715 15.1914 11.8165 15.2656L12.9077 15.5039C13.0952 16.0234 13.3615 16.5 13.6915 16.918L13.3427 18.0195C13.2302 18.3711 13.324 18.7617 13.609 18.9844C13.7852 19.1211 13.9652 19.25 14.1565 19.3672L14.359 19.4883C14.5465 19.5977 14.7415 19.6953 14.9402 19.7852C15.2665 19.9297 15.6377 19.8203 15.8777 19.543L16.6202 18.6758C16.8752 18.7187 17.1377 18.7422 17.404 18.7422C17.6702 18.7422 17.9327 18.7187 18.1877 18.6758L18.9302 19.543L18.9265 19.5508ZM17.4002 11.875C17.6366 11.875 17.8707 11.9235 18.0891 12.0177C18.3075 12.112 18.5059 12.2501 18.673 12.4242C18.8402 12.5983 18.9728 12.805 19.0632 13.0325C19.1537 13.26 19.2002 13.5038 19.2002 13.75C19.2002 13.9962 19.1537 14.24 19.0632 14.4675C18.9728 14.695 18.8402 14.9017 18.673 15.0758C18.5059 15.2499 18.3075 15.388 18.0891 15.4823C17.8707 15.5765 17.6366 15.625 17.4002 15.625C17.1639 15.625 16.9298 15.5765 16.7114 15.4823C16.493 15.388 16.2946 15.2499 16.1274 15.0758C15.9603 14.9017 15.8277 14.695 15.7373 14.4675C15.6468 14.24 15.6002 13.9962 15.6002 13.75C15.6002 13.5038 15.6468 13.26 15.7373 13.0325C15.8277 12.805 15.9603 12.5983 16.1274 12.4242C16.2946 12.2501 16.493 12.112 16.7114 12.0177C16.9298 11.9235 17.1639 11.875 17.4002 11.875Z" fill="white"/>
</svg>
