<svg width="20" height="24" viewBox="0 0 20 24" fill="none" xmlns="http://www.w3.org/2000/svg">
<g clip-path="url(#clip0_729_2732)">
<path d="M6.03571 0.829688C6.27679 0.31875 6.77232 0 7.3125 0H12.6875C13.2277 0 13.7232 0.31875 13.9643 0.829688L14.2857 1.5H18.5714C19.3616 1.5 20 2.17031 20 3C20 3.82969 19.3616 4.5 18.5714 4.5H1.42857C0.638393 4.5 0 3.82969 0 3C0 2.17031 0.638393 1.5 1.42857 1.5H5.71429L6.03571 0.829688ZM1.42857 6H18.5714V21C18.5714 22.6547 17.2902 24 15.7143 24H4.28571C2.70982 24 1.42857 22.6547 1.42857 21V6ZM5.71429 9C5.32143 9 5 9.3375 5 9.75V20.25C5 20.6625 5.32143 21 5.71429 21C6.10714 21 6.42857 20.6625 6.42857 20.25V9.75C6.42857 9.3375 6.10714 9 5.71429 9ZM10 9C9.60714 9 9.28571 9.3375 9.28571 9.75V20.25C9.28571 20.6625 9.60714 21 10 21C10.3929 21 10.7143 20.6625 10.7143 20.25V9.75C10.7143 9.3375 10.3929 9 10 9ZM14.2857 9C13.8929 9 13.5714 9.3375 13.5714 9.75V20.25C13.5714 20.6625 13.8929 21 14.2857 21C14.6786 21 15 20.6625 15 20.25V9.75C15 9.3375 14.6786 9 14.2857 9Z" fill="#B60000"/>
</g>
<defs>
<clipPath id="clip0_729_2732">
<rect width="20" height="24" fill="white"/>
</clipPath>
</defs>
</svg>
